v  -0.5 -0.5 0.5
v  0.5 -0.5 0.5
v  -0.5 0.5 0.5
v  0.5 0.5 0.5
v  0.5 -0.5 -0.5
v  0.5 0.5 -0.5
v  0.5 -0.5 0.5
v  0.5 0.5 0.5
v  0.5 -0.5 0.5
v  -0.5 -0.5 0.5
v  0.5 -0.5 -0.5
v  -0.5 -0.5 -0.5
v  -0.5 -0.5 -0.5
v  0.5 -0.5 -0.5
v  -0.5 0.5 -0.5
v  0.5 0.5 -0.5
v  0.5 0.5 0.5
v  -0.5 0.5 0.5
v  0.5 0.5 -0.5
v  -0.5 0.5 -0.5
v  -0.5 0.5 0.5
v  -0.5 -0.5 0.5
v  -0.5 0.5 -0.5
v  -0.5 -0.5 -0.5
# total vertex count: 24

vt  0 0
vt  1 0
vt  0 1
vt  1 1
vt  1 0
vt  1 1
vt  0 0
vt  0 1
vt  1 1
vt  0 1
vt  1 0
vt  0 0
vt  1 0
vt  0 0
vt  1 1
vt  0 1
vt  0 1
vt  1 1
vt  0 0
vt  1 0
vt  1 1
vt  1 0
vt  0 1
vt  0 0
# total texcoord count: 24

vn  0 0 1
vn  0 0 1
vn  0 0 1
vn  0 0 1
vn  1 0 0
vn  1 0 0
vn  1 0 0
vn  1 0 0
vn  0 -1 0
vn  0 -1 0
vn  0 -1 0
vn  0 -1 0
vn  0 0 -1
vn  0 0 -1
vn  0 0 -1
vn  0 0 -1
vn  0 1 0
vn  0 1 0
vn  0 1 0
vn  0 1 0
vn  -1 0 0
vn  -1 0 0
vn  -1 0 0
vn  -1 0 0
# total normal count: 24

f  1/1/1 2/2/2 3/3/3
f  2/2/2 4/4/4 3/3/3
f  5/5/5 6/6/6 7/7/7
f  6/6/6 8/8/8 7/7/7
f  9/9/9 10/10/10 11/11/11
f  10/10/10 12/12/12 11/11/11
f  13/13/13 15/15/15 14/14/14
f  14/14/14 15/15/15 16/16/16
f  17/17/17 19/19/19 18/18/18
f  18/18/18 19/19/19 20/20/20
f  21/21/21 23/23/23 22/22/22
f  22/22/22 23/23/23 24/24/24
# total index count: 36
