v  0 -0.5 0
v  -0 -0.5 0
v  -0 -0.5 -0
v  0 -0.5 -0
v  0 -0.5 0
v  0.353553 -0.353553 0
v  -1.54543e-08 -0.353553 0.353553
v  -0.353553 -0.353553 -3.09086e-08
v  4.21608e-09 -0.353553 -0.353553
v  0.353553 -0.353553 6.18172e-08
v  0.5 2.18557e-08 0
v  -2.18557e-08 2.18557e-08 0.5
v  -0.5 2.18557e-08 -4.37114e-08
v  5.96244e-09 2.18557e-08 -0.5
v  0.5 2.18557e-08 8.74228e-08
v  0.353553 0.353553 0
v  -1.54543e-08 0.353553 0.353553
v  -0.353553 0.353553 -3.09086e-08
v  4.21608e-09 0.353553 -0.353553
v  0.353553 0.353553 6.18172e-08
v  -4.37114e-08 0.5 -0
v  1.91069e-15 0.5 -4.37114e-08
v  4.37114e-08 0.5 3.82137e-15
v  -5.21253e-16 0.5 4.37114e-08
v  -4.37114e-08 0.5 -7.64274e-15
# total vertex count: 25

vt  1 0
vt  0.75 0
vt  0.5 0
vt  0.25 0
vt  0 0
vt  1 0.25
vt  0.75 0.25
vt  0.5 0.25
vt  0.25 0.25
vt  0 0.25
vt  1 0.5
vt  0.75 0.5
vt  0.5 0.5
vt  0.25 0.5
vt  0 0.5
vt  1 0.75
vt  0.75 0.75
vt  0.5 0.75
vt  0.25 0.75
vt  0 0.75
vt  1 1
vt  0.75 1
vt  0.5 1
vt  0.25 1
vt  0 1
# total texcoord count: 25

vn  0 -1 0
vn  -0 -1 0
vn  -0 -1 -0
vn  0 -1 -0
vn  0 -1 0
vn  0.707107 -0.707107 0
vn  -3.09086e-08 -0.707107 0.707107
vn  -0.707107 -0.707107 -6.18172e-08
vn  8.43216e-09 -0.707107 -0.707107
vn  0.707107 -0.707107 1.23634e-07
vn  1 4.37114e-08 0
vn  -4.37114e-08 4.37114e-08 1
vn  -1 4.37114e-08 -8.74228e-08
vn  1.19249e-08 4.37114e-08 -1
vn  1 4.37114e-08 1.74846e-07
vn  0.707107 0.707107 0
vn  -3.09086e-08 0.707107 0.707107
vn  -0.707107 0.707107 -6.18172e-08
vn  8.43216e-09 0.707107 -0.707107
vn  0.707107 0.707107 1.23634e-07
vn  -8.74228e-08 1 -0
vn  3.82137e-15 1 -8.74228e-08
vn  8.74228e-08 1 7.64274e-15
vn  -1.04251e-15 1 8.74228e-08
vn  -8.74228e-08 1 -1.52855e-14
# total normal count: 25

f  2/2/2 6/6/6 7/7/7
f  3/3/3 7/7/7 8/8/8
f  4/4/4 8/8/8 9/9/9
f  5/5/5 9/9/9 10/10/10
f  6/6/6 11/11/11 7/7/7
f  7/7/7 11/11/11 12/12/12
f  7/7/7 12/12/12 8/8/8
f  8/8/8 12/12/12 13/13/13
f  8/8/8 13/13/13 9/9/9
f  9/9/9 13/13/13 14/14/14
f  9/9/9 14/14/14 10/10/10
f  10/10/10 14/14/14 15/15/15
f  11/11/11 16/16/16 12/12/12
f  12/12/12 16/16/16 17/17/17
f  12/12/12 17/17/17 13/13/13
f  13/13/13 17/17/17 18/18/18
f  13/13/13 18/18/18 14/14/14
f  14/14/14 18/18/18 19/19/19
f  14/14/14 19/19/19 15/15/15
f  15/15/15 19/19/19 20/20/20
f  16/16/16 21/21/21 17/17/17
f  17/17/17 22/22/22 18/18/18
f  18/18/18 23/23/23 19/19/19
f  19/19/19 24/24/24 20/20/20
# total index count: 72
