v  0 -0.5 0
v  0 -0.5 0
v  -0 -0.5 0
v  -0 -0.5 0
v  -0 -0.5 -0
v  -0 -0.5 -0
v  0 -0.5 -0
v  0 -0.5 -0
v  0 -0.5 0
v  0.191342 -0.46194 0
v  0.135299 -0.46194 0.135299
v  -8.36381e-09 -0.46194 0.191342
v  -0.135299 -0.46194 0.135299
v  -0.191342 -0.46194 -1.67276e-08
v  -0.135299 -0.46194 -0.135299
v  2.28173e-09 -0.46194 -0.191342
v  0.135299 -0.46194 -0.135299
v  0.191342 -0.46194 3.34553e-08
v  0.353553 -0.353553 0
v  0.25 -0.353553 0.25
v  -1.54543e-08 -0.353553 0.353553
v  -0.25 -0.353553 0.25
v  -0.353553 -0.353553 -3.09086e-08
v  -0.25 -0.353553 -0.25
v  4.21608e-09 -0.353553 -0.353553
v  0.25 -0.353553 -0.25
v  0.353553 -0.353553 6.18172e-08
v  0.46194 -0.191342 0
v  0.326641 -0.191342 0.326641
v  -2.0192e-08 -0.191342 0.46194
v  -0.326641 -0.191342 0.326641
v  -0.46194 -0.191342 -4.03841e-08
v  -0.326641 -0.191342 -0.326641
v  5.50858e-09 -0.191342 -0.46194
v  0.326641 -0.191342 -0.326641
v  0.46194 -0.191342 8.07681e-08
v  0.5 2.18557e-08 0
v  0.353553 2.18557e-08 0.353553
v  -2.18557e-08 2.18557e-08 0.5
v  -0.353553 2.18557e-08 0.353553
v  -0.5 2.18557e-08 -4.37114e-08
v  -0.353553 2.18557e-08 -0.353553
v  5.96244e-09 2.18557e-08 -0.5
v  0.353554 2.18557e-08 -0.353553
v  0.5 2.18557e-08 8.74228e-08
v  0.46194 0.191342 0
v  0.326641 0.191342 0.326641
v  -2.0192e-08 0.191342 0.46194
v  -0.326641 0.191342 0.326641
v  -0.46194 0.191342 -4.03841e-08
v  -0.326641 0.191342 -0.326641
v  5.50858e-09 0.191342 -0.46194
v  0.326641 0.191342 -0.326641
v  0.46194 0.191342 8.07681e-08
v  0.353553 0.353553 0
v  0.25 0.353553 0.25
v  -1.54543e-08 0.353553 0.353553
v  -0.25 0.353553 0.25
v  -0.353553 0.353553 -3.09086e-08
v  -0.25 0.353553 -0.25
v  4.21608e-09 0.353553 -0.353553
v  0.25 0.353553 -0.25
v  0.353553 0.353553 6.18172e-08
v  0.191342 0.46194 0
v  0.135299 0.46194 0.135299
v  -8.36381e-09 0.46194 0.191342
v  -0.135299 0.46194 0.135299
v  -0.191342 0.46194 -1.67276e-08
v  -0.135299 0.46194 -0.135299
v  2.28173e-09 0.46194 -0.191342
v  0.135299 0.46194 -0.135299
v  0.191342 0.46194 3.34552e-08
v  -4.37114e-08 0.5 -0
v  -3.09086e-08 0.5 -3.09086e-08
v  1.91069e-15 0.5 -4.37114e-08
v  3.09086e-08 0.5 -3.09086e-08
v  4.37114e-08 0.5 3.82137e-15
v  3.09086e-08 0.5 3.09086e-08
v  -5.21253e-16 0.5 4.37114e-08
v  -3.09086e-08 0.5 3.09086e-08
v  -4.37114e-08 0.5 -7.64274e-15
# total vertex count: 81

vt  1 0
vt  0.875 0
vt  0.75 0
vt  0.625 0
vt  0.5 0
vt  0.375 0
vt  0.25 0
vt  0.125 0
vt  0 0
vt  1 0.125
vt  0.875 0.125
vt  0.75 0.125
vt  0.625 0.125
vt  0.5 0.125
vt  0.375 0.125
vt  0.25 0.125
vt  0.125 0.125
vt  0 0.125
vt  1 0.25
vt  0.875 0.25
vt  0.75 0.25
vt  0.625 0.25
vt  0.5 0.25
vt  0.375 0.25
vt  0.25 0.25
vt  0.125 0.25
vt  0 0.25
vt  1 0.375
vt  0.875 0.375
vt  0.75 0.375
vt  0.625 0.375
vt  0.5 0.375
vt  0.375 0.375
vt  0.25 0.375
vt  0.125 0.375
vt  0 0.375
vt  1 0.5
vt  0.875 0.5
vt  0.75 0.5
vt  0.625 0.5
vt  0.5 0.5
vt  0.375 0.5
vt  0.25 0.5
vt  0.125 0.5
vt  0 0.5
vt  1 0.625
vt  0.875 0.625
vt  0.75 0.625
vt  0.625 0.625
vt  0.5 0.625
vt  0.375 0.625
vt  0.25 0.625
vt  0.125 0.625
vt  0 0.625
vt  1 0.75
vt  0.875 0.75
vt  0.75 0.75
vt  0.625 0.75
vt  0.5 0.75
vt  0.375 0.75
vt  0.25 0.75
vt  0.125 0.75
vt  0 0.75
vt  1 0.875
vt  0.875 0.875
vt  0.75 0.875
vt  0.625 0.875
vt  0.5 0.875
vt  0.375 0.875
vt  0.25 0.875
vt  0.125 0.875
vt  0 0.875
vt  1 1
vt  0.875 1
vt  0.75 1
vt  0.625 1
vt  0.5 1
vt  0.375 1
vt  0.25 1
vt  0.125 1
vt  0 1
# total texcoord count: 81

vn  0 -1 0
vn  0 -1 0
vn  -0 -1 0
vn  -0 -1 0
vn  -0 -1 -0
vn  -0 -1 -0
vn  0 -1 -0
vn  0 -1 -0
vn  0 -1 0
vn  0.382683 -0.92388 0
vn  0.270598 -0.92388 0.270598
vn  -1.67276e-08 -0.92388 0.382683
vn  -0.270598 -0.92388 0.270598
vn  -0.382683 -0.92388 -3.34553e-08
vn  -0.270598 -0.92388 -0.270598
vn  4.56345e-09 -0.92388 -0.382683
vn  0.270598 -0.92388 -0.270598
vn  0.382683 -0.92388 6.69105e-08
vn  0.707107 -0.707107 0
vn  0.5 -0.707107 0.5
vn  -3.09086e-08 -0.707107 0.707107
vn  -0.5 -0.707107 0.5
vn  -0.707107 -0.707107 -6.18172e-08
vn  -0.5 -0.707107 -0.5
vn  8.43216e-09 -0.707107 -0.707107
vn  0.5 -0.707107 -0.5
vn  0.707107 -0.707107 1.23634e-07
vn  0.92388 -0.382683 0
vn  0.653281 -0.382683 0.653281
vn  -4.03841e-08 -0.382683 0.92388
vn  -0.653281 -0.382683 0.653281
vn  -0.92388 -0.382683 -8.07681e-08
vn  -0.653281 -0.382683 -0.653282
vn  1.10172e-08 -0.382683 -0.92388
vn  0.653282 -0.382683 -0.653281
vn  0.92388 -0.382683 1.61536e-07
vn  1 4.37114e-08 0
vn  0.707107 4.37114e-08 0.707107
vn  -4.37114e-08 4.37114e-08 1
vn  -0.707107 4.37114e-08 0.707107
vn  -1 4.37114e-08 -8.74228e-08
vn  -0.707107 4.37114e-08 -0.707107
vn  1.19249e-08 4.37114e-08 -1
vn  0.707107 4.37114e-08 -0.707107
vn  1 4.37114e-08 1.74846e-07
vn  0.92388 0.382684 0
vn  0.653281 0.382684 0.653281
vn  -4.03841e-08 0.382684 0.92388
vn  -0.653281 0.382684 0.653281
vn  -0.92388 0.382684 -8.07681e-08
vn  -0.653281 0.382684 -0.653282
vn  1.10172e-08 0.382684 -0.92388
vn  0.653282 0.382684 -0.653281
vn  0.92388 0.382684 1.61536e-07
vn  0.707107 0.707107 0
vn  0.5 0.707107 0.5
vn  -3.09086e-08 0.707107 0.707107
vn  -0.5 0.707107 0.5
vn  -0.707107 0.707107 -6.18172e-08
vn  -0.5 0.707107 -0.5
vn  8.43216e-09 0.707107 -0.707107
vn  0.5 0.707107 -0.5
vn  0.707107 0.707107 1.23634e-07
vn  0.382683 0.92388 0
vn  0.270598 0.92388 0.270598
vn  -1.67276e-08 0.92388 0.382683
vn  -0.270598 0.92388 0.270598
vn  -0.382683 0.92388 -3.34552e-08
vn  -0.270598 0.92388 -0.270598
vn  4.56345e-09 0.92388 -0.382683
vn  0.270598 0.92388 -0.270598
vn  0.382683 0.92388 6.69105e-08
vn  -8.74228e-08 1 -0
vn  -6.18172e-08 1 -6.18172e-08
vn  3.82137e-15 1 -8.74228e-08
vn  6.18172e-08 1 -6.18172e-08
vn  8.74228e-08 1 7.64274e-15
vn  6.18172e-08 1 6.18172e-08
vn  -1.04251e-15 1 8.74228e-08
vn  -6.18173e-08 1 6.18172e-08
vn  -8.74228e-08 1 -1.52855e-14
# total normal count: 81

f  2/2/2 10/10/10 11/11/11
f  3/3/3 11/11/11 12/12/12
f  4/4/4 12/12/12 13/13/13
f  5/5/5 13/13/13 14/14/14
f  6/6/6 14/14/14 15/15/15
f  7/7/7 15/15/15 16/16/16
f  8/8/8 16/16/16 17/17/17
f  9/9/9 17/17/17 18/18/18
f  10/10/10 19/19/19 11/11/11
f  11/11/11 19/19/19 20/20/20
f  11/11/11 20/20/20 12/12/12
f  12/12/12 20/20/20 21/21/21
f  12/12/12 21/21/21 13/13/13
f  13/13/13 21/21/21 22/22/22
f  13/13/13 22/22/22 14/14/14
f  14/14/14 22/22/22 23/23/23
f  14/14/14 23/23/23 15/15/15
f  15/15/15 23/23/23 24/24/24
f  15/15/15 24/24/24 16/16/16
f  16/16/16 24/24/24 25/25/25
f  16/16/16 25/25/25 17/17/17
f  17/17/17 25/25/25 26/26/26
f  17/17/17 26/26/26 18/18/18
f  18/18/18 26/26/26 27/27/27
f  19/19/19 28/28/28 20/20/20
f  20/20/20 28/28/28 29/29/29
f  20/20/20 29/29/29 21/21/21
f  21/21/21 29/29/29 30/30/30
f  21/21/21 30/30/30 22/22/22
f  22/22/22 30/30/30 31/31/31
f  22/22/22 31/31/31 23/23/23
f  23/23/23 31/31/31 32/32/32
f  23/23/23 32/32/32 24/24/24
f  24/24/24 32/32/32 33/33/33
f  24/24/24 33/33/33 25/25/25
f  25/25/25 33/33/33 34/34/34
f  25/25/25 34/34/34 26/26/26
f  26/26/26 34/34/34 35/35/35
f  26/26/26 35/35/35 27/27/27
f  27/27/27 35/35/35 36/36/36
f  28/28/28 37/37/37 29/29/29
f  29/29/29 37/37/37 38/38/38
f  29/29/29 38/38/38 30/30/30
f  30/30/30 38/38/38 39/39/39
f  30/30/30 39/39/39 31/31/31
f  31/31/31 39/39/39 40/40/40
f  31/31/31 40/40/40 32/32/32
f  32/32/32 40/40/40 41/41/41
f  32/32/32 41/41/41 33/33/33
f  33/33/33 41/41/41 42/42/42
f  33/33/33 42/42/42 34/34/34
f  34/34/34 42/42/42 43/43/43
f  34/34/34 43/43/43 35/35/35
f  35/35/35 43/43/43 44/44/44
f  35/35/35 44/44/44 36/36/36
f  36/36/36 44/44/44 45/45/45
f  37/37/37 46/46/46 38/38/38
f  38/38/38 46/46/46 47/47/47
f  38/38/38 47/47/47 39/39/39
f  39/39/39 47/47/47 48/48/48
f  39/39/39 48/48/48 40/40/40
f  40/40/40 48/48/48 49/49/49
f  40/40/40 49/49/49 41/41/41
f  41/41/41 49/49/49 50/50/50
f  41/41/41 50/50/50 42/42/42
f  42/42/42 50/50/50 51/51/51
f  42/42/42 51/51/51 43/43/43
f  43/43/43 51/51/51 52/52/52
f  43/43/43 52/52/52 44/44/44
f  44/44/44 52/52/52 53/53/53
f  44/44/44 53/53/53 45/45/45
f  45/45/45 53/53/53 54/54/54
f  46/46/46 55/55/55 47/47/47
f  47/47/47 55/55/55 56/56/56
f  47/47/47 56/56/56 48/48/48
f  48/48/48 56/56/56 57/57/57
f  48/48/48 57/57/57 49/49/49
f  49/49/49 57/57/57 58/58/58
f  49/49/49 58/58/58 50/50/50
f  50/50/50 58/58/58 59/59/59
f  50/50/50 59/59/59 51/51/51
f  51/51/51 59/59/59 60/60/60
f  51/51/51 60/60/60 52/52/52
f  52/52/52 60/60/60 61/61/61
f  52/52/52 61/61/61 53/53/53
f  53/53/53 61/61/61 62/62/62
f  53/53/53 62/62/62 54/54/54
f  54/54/54 62/62/62 63/63/63
f  55/55/55 64/64/64 56/56/56
f  56/56/56 64/64/64 65/65/65
f  56/56/56 65/65/65 57/57/57
f  57/57/57 65/65/65 66/66/66
f  57/57/57 66/66/66 58/58/58
f  58/58/58 66/66/66 67/67/67
f  58/58/58 67/67/67 59/59/59
f  59/59/59 67/67/67 68/68/68
f  59/59/59 68/68/68 60/60/60
f  60/60/60 68/68/68 69/69/69
f  60/60/60 69/69/69 61/61/61
f  61/61/61 69/69/69 70/70/70
f  61/61/61 70/70/70 62/62/62
f  62/62/62 70/70/70 71/71/71
f  62/62/62 71/71/71 63/63/63
f  63/63/63 71/71/71 72/72/72
f  64/64/64 73/73/73 65/65/65
f  65/65/65 74/74/74 66/66/66
f  66/66/66 75/75/75 67/67/67
f  67/67/67 76/76/76 68/68/68
f  68/68/68 77/77/77 69/69/69
f  69/69/69 78/78/78 70/70/70
f  70/70/70 79/79/79 71/71/71
f  71/71/71 80/80/80 72/72/72
# total index count: 336
