v  0 0.5 0
v  0 0.5 0.5
v  0.154509 0.5 0.475528
v  0.293893 0.5 0.404509
v  0.404509 0.5 0.293893
v  0.475528 0.5 0.154508
v  0.5 0.5 -2.18557e-08
v  0.475528 0.5 -0.154509
v  0.404508 0.5 -0.293893
v  0.293893 0.5 -0.404509
v  0.154509 0.5 -0.475528
v  -4.37114e-08 0.5 -0.5
v  -0.154509 0.5 -0.475528
v  -0.293893 0.5 -0.404508
v  -0.404509 0.5 -0.293893
v  -0.475528 0.5 -0.154508
v  -0.5 0.5 5.96244e-09
v  -0.475528 0.5 0.154509
v  -0.404508 0.5 0.293893
v  -0.293893 0.5 0.404508
v  -0.154508 0.5 0.475528
v  0 -0.5 0
v  0 -0.5 0.5
v  0.154509 -0.5 0.475528
v  0.293893 -0.5 0.404509
v  0.404509 -0.5 0.293893
v  0.475528 -0.5 0.154508
v  0.5 -0.5 -2.18557e-08
v  0.475528 -0.5 -0.154509
v  0.404508 -0.5 -0.293893
v  0.293893 -0.5 -0.404509
v  0.154509 -0.5 -0.475528
v  -4.37114e-08 -0.5 -0.5
v  -0.154509 -0.5 -0.475528
v  -0.293893 -0.5 -0.404508
v  -0.404509 -0.5 -0.293893
v  -0.475528 -0.5 -0.154508
v  -0.5 -0.5 5.96244e-09
v  -0.475528 -0.5 0.154509
v  -0.404508 -0.5 0.293893
v  -0.293893 -0.5 0.404508
v  -0.154508 -0.5 0.475528
v  0 0.5 0.5
v  0 -0.5 0.5
v  0.154509 0.5 0.475528
v  0.154509 -0.5 0.475528
v  0.293893 0.5 0.404509
v  0.293893 -0.5 0.404509
v  0.404509 0.5 0.293893
v  0.404509 -0.5 0.293893
v  0.475528 0.5 0.154508
v  0.475528 -0.5 0.154508
v  0.5 0.5 -2.18557e-08
v  0.5 -0.5 -2.18557e-08
v  0.475528 0.5 -0.154509
v  0.475528 -0.5 -0.154509
v  0.404508 0.5 -0.293893
v  0.404508 -0.5 -0.293893
v  0.293893 0.5 -0.404509
v  0.293893 -0.5 -0.404509
v  0.154509 0.5 -0.475528
v  0.154509 -0.5 -0.475528
v  -4.37114e-08 0.5 -0.5
v  -4.37114e-08 -0.5 -0.5
v  -0.154509 0.5 -0.475528
v  -0.154509 -0.5 -0.475528
v  -0.293893 0.5 -0.404508
v  -0.293893 -0.5 -0.404508
v  -0.404509 0.5 -0.293893
v  -0.404509 -0.5 -0.293893
v  -0.475528 0.5 -0.154508
v  -0.475528 -0.5 -0.154508
v  -0.5 0.5 5.96244e-09
v  -0.5 -0.5 5.96244e-09
v  -0.475528 0.5 0.154509
v  -0.475528 -0.5 0.154509
v  -0.404508 0.5 0.293893
v  -0.404508 -0.5 0.293893
v  -0.293893 0.5 0.404508
v  -0.293893 -0.5 0.404508
v  -0.154508 0.5 0.475528
v  -0.154508 -0.5 0.475528
# total vertex count: 82

vt  0.5 0.5
vt  0.5 1
vt  0.654508 0.975528
vt  0.793893 0.904508
vt  0.904508 0.793893
vt  0.975528 0.654508
vt  1 0.5
vt  0.975528 0.345491
vt  0.904508 0.206107
vt  0.793893 0.0954915
vt  0.654509 0.0244718
vt  0.5 0
vt  0.345491 0.0244718
vt  0.206107 0.0954915
vt  0.0954914 0.206107
vt  0.0244717 0.345492
vt  0 0.5
vt  0.0244718 0.654509
vt  0.0954916 0.793893
vt  0.206107 0.904508
vt  0.345492 0.975528
vt  0.5 0.5
vt  0.5 1
vt  0.654508 0.975528
vt  0.793893 0.904508
vt  0.904508 0.793893
vt  0.975528 0.654508
vt  1 0.5
vt  0.975528 0.345491
vt  0.904508 0.206107
vt  0.793893 0.0954915
vt  0.654509 0.0244718
vt  0.5 0
vt  0.345491 0.0244718
vt  0.206107 0.0954915
vt  0.0954914 0.206107
vt  0.0244717 0.345492
vt  0 0.5
vt  0.0244718 0.654509
vt  0.0954916 0.793893
vt  0.206107 0.904508
vt  0.345492 0.975528
vt  0 1
vt  0 0
vt  0.05 1
vt  0.05 0
vt  0.1 1
vt  0.1 0
vt  0.15 1
vt  0.15 0
vt  0.2 1
vt  0.2 0
vt  0.25 1
vt  0.25 0
vt  0.3 1
vt  0.3 0
vt  0.35 1
vt  0.35 0
vt  0.4 1
vt  0.4 0
vt  0.45 1
vt  0.45 0
vt  0.5 1
vt  0.5 0
vt  0.55 1
vt  0.55 0
vt  0.6 1
vt  0.6 0
vt  0.65 1
vt  0.65 0
vt  0.7 1
vt  0.7 0
vt  0.75 1
vt  0.75 0
vt  0.8 1
vt  0.8 0
vt  0.85 1
vt  0.85 0
vt  0.9 1
vt  0.9 0
vt  0.95 1
vt  0.95 0
# total texcoord count: 82

vn  0 1 0
vn  0 1 0
vn  0 1 0
vn  0 1 0
vn  0 1 0
vn  0 1 0
vn  0 1 0
vn  0 1 0
vn  0 1 0
vn  0 1 0
vn  0 1 0
vn  0 1 0
vn  0 1 0
vn  0 1 0
vn  0 1 0
vn  0 1 0
vn  0 1 0
vn  0 1 0
vn  0 1 0
vn  0 1 0
vn  0 1 0
vn  0 -1 0
vn  0 -1 0
vn  0 -1 0
vn  0 -1 0
vn  0 -1 0
vn  0 -1 0
vn  0 -1 0
vn  0 -1 0
vn  0 -1 0
vn  0 -1 0
vn  0 -1 0
vn  0 -1 0
vn  0 -1 0
vn  0 -1 0
vn  0 -1 0
vn  0 -1 0
vn  0 -1 0
vn  0 -1 0
vn  0 -1 0
vn  0 -1 0
vn  0 -1 0
vn  -0.0527214 0 0.998609
vn  0.0527214 0 0.998609
vn  0.258446 0 0.966026
vn  0.358728 0 0.933442
vn  0.544315 0 0.838881
vn  0.62962 0 0.776903
vn  0.776903 0 0.62962
vn  0.838881 0 0.544315
vn  0.933442 0 0.358728
vn  0.966026 0 0.258446
vn  0.998609 0 0.0527213
vn  0.998609 0 -0.0527215
vn  0.966026 0 -0.258446
vn  0.933442 0 -0.358728
vn  0.838881 0 -0.544315
vn  0.776903 0 -0.62962
vn  0.62962 0 -0.776903
vn  0.544315 0 -0.838881
vn  0.358728 0 -0.933442
vn  0.258446 0 -0.966026
vn  0.0527213 0 -0.998609
vn  -0.0527215 0 -0.998609
vn  -0.258446 0 -0.966026
vn  -0.358728 0 -0.933442
vn  -0.544315 0 -0.838881
vn  -0.62962 0 -0.776903
vn  -0.776903 0 -0.62962
vn  -0.838881 0 -0.544315
vn  -0.933442 0 -0.358728
vn  -0.966026 0 -0.258446
vn  -0.998609 0 -0.0527213
vn  -0.998609 0 0.0527215
vn  -0.966026 0 0.258446
vn  -0.933442 0 0.358728
vn  -0.838881 0 0.544315
vn  -0.776903 0 0.62962
vn  -0.62962 0 0.776903
vn  -0.544315 0 0.838881
vn  -0.358728 0 0.933442
vn  -0.258446 0 0.966026
# total normal count: 82

f  2/2/2 3/3/3 1/1/1
f  3/3/3 4/4/4 1/1/1
f  4/4/4 5/5/5 1/1/1
f  5/5/5 6/6/6 1/1/1
f  6/6/6 7/7/7 1/1/1
f  7/7/7 8/8/8 1/1/1
f  8/8/8 9/9/9 1/1/1
f  9/9/9 10/10/10 1/1/1
f  10/10/10 11/11/11 1/1/1
f  11/11/11 12/12/12 1/1/1
f  12/12/12 13/13/13 1/1/1
f  13/13/13 14/14/14 1/1/1
f  14/14/14 15/15/15 1/1/1
f  15/15/15 16/16/16 1/1/1
f  16/16/16 17/17/17 1/1/1
f  17/17/17 18/18/18 1/1/1
f  18/18/18 19/19/19 1/1/1
f  19/19/19 20/20/20 1/1/1
f  20/20/20 21/21/21 1/1/1
f  21/21/21 2/2/2 1/1/1
f  23/23/23 22/22/22 24/24/24
f  24/24/24 22/22/22 25/25/25
f  25/25/25 22/22/22 26/26/26
f  26/26/26 22/22/22 27/27/27
f  27/27/27 22/22/22 28/28/28
f  28/28/28 22/22/22 29/29/29
f  29/29/29 22/22/22 30/30/30
f  30/30/30 22/22/22 31/31/31
f  31/31/31 22/22/22 32/32/32
f  32/32/32 22/22/22 33/33/33
f  33/33/33 22/22/22 34/34/34
f  34/34/34 22/22/22 35/35/35
f  35/35/35 22/22/22 36/36/36
f  36/36/36 22/22/22 37/37/37
f  37/37/37 22/22/22 38/38/38
f  38/38/38 22/22/22 39/39/39
f  39/39/39 22/22/22 40/40/40
f  40/40/40 22/22/22 41/41/41
f  41/41/41 22/22/22 42/42/42
f  42/42/42 22/22/22 23/23/23
f  43/43/43 44/44/44 45/45/45
f  45/45/45 44/44/44 46/46/46
f  45/45/45 46/46/46 47/47/47
f  47/47/47 46/46/46 48/48/48
f  47/47/47 48/48/48 49/49/49
f  49/49/49 48/48/48 50/50/50
f  49/49/49 50/50/50 51/51/51
f  51/51/51 50/50/50 52/52/52
f  51/51/51 52/52/52 53/53/53
f  53/53/53 52/52/52 54/54/54
f  53/53/53 54/54/54 55/55/55
f  55/55/55 54/54/54 56/56/56
f  55/55/55 56/56/56 57/57/57
f  57/57/57 56/56/56 58/58/58
f  57/57/57 58/58/58 59/59/59
f  59/59/59 58/58/58 60/60/60
f  59/59/59 60/60/60 61/61/61
f  61/61/61 60/60/60 62/62/62
f  61/61/61 62/62/62 63/63/63
f  63/63/63 62/62/62 64/64/64
f  63/63/63 64/64/64 65/65/65
f  65/65/65 64/64/64 66/66/66
f  65/65/65 66/66/66 67/67/67
f  67/67/67 66/66/66 68/68/68
f  67/67/67 68/68/68 69/69/69
f  69/69/69 68/68/68 70/70/70
f  69/69/69 70/70/70 71/71/71
f  71/71/71 70/70/70 72/72/72
f  71/71/71 72/72/72 73/73/73
f  73/73/73 72/72/72 74/74/74
f  73/73/73 74/74/74 75/75/75
f  75/75/75 74/74/74 76/76/76
f  75/75/75 76/76/76 77/77/77
f  77/77/77 76/76/76 78/78/78
f  77/77/77 78/78/78 79/79/79
f  79/79/79 78/78/78 80/80/80
f  79/79/79 80/80/80 81/81/81
f  81/81/81 80/80/80 82/82/82
f  81/81/81 82/82/82 43/43/43
f  43/43/43 82/82/82 44/44/44
# total index count: 240
