{
  "accessors": [
    {
      "bufferView": 2,
      "componentType": 5126,
      "count": 4842,
      "max": [
        0.4991765022277832,
        1.9436826705932617,
        3.5100302696228027
      ],
      "min": [
        -0.4991765022277832,
        -1.80350661277771,
        -4.1366667747497559
      ],
      "type": "VEC3"
    },
    {
      "bufferView": 2,
      "byteOffset": 58104,
      "componentType": 5126,
      "count": 4842,
      "max": [
        1,
        1,
        1
      ],
      "min": [
        -1,
        -1,
        -1
      ],
      "type": "VEC3"
    },
    {
      "bufferView": 3,
      "componentType": 5126,
      "count": 4842,
      "max": [
        0.99999940395355225,
        0.99999135732650757,
        0.99953615665435791,
        1
      ],
      "min": [
        -0.99999946355819702,
        -0.9999968409538269,
        -0.99995017051696777,
        -1
      ],
      "type": "VEC4"
    },
    {
      "bufferView": 1,
      "componentType": 5126,
      "count": 4842,
      "max": [
        0.99755859375,
        0.98578083515167236
      ],
      "min": [
        0.0024413615465164185,
        0.0024412614293396473
      ],
      "type": "VEC2"
    },
    {
      "bufferView": 1,
      "byteOffset": 38736,
      "componentType": 5126,
      "count": 4842,
      "max": [
        0.99755859375,
        0.98578083515167236
      ],
      "min": [
        0.0024413615465164185,
        0.0024412614293396473
      ],
      "type": "VEC2"
    },
    {
      "bufferView": 1,
      "byteOffset": 77472,
      "componentType": 5126,
      "count": 4842,
      "max": [
        0.99755859375,
        0.98578083515167236
      ],
      "min": [
        0.0024413615465164185,
        0.0024412614293396473
      ],
      "type": "VEC2"
    },
    {
      "bufferView": 0,
      "componentType": 5125,
      "count": 15090,
      "max": [
        4841
      ],
      "min": [
        0
      ],
      "type": "SCALAR"
    }
  ],
  "asset": {
    "extras": {
      "author": "Ilia_Tun (https://sketchfab.com/Ilia_Tun)",
      "license": "CC-BY-4.0 (http://creativecommons.org/licenses/by/4.0/)",
      "source": "https://sketchfab.com/3d-models/doom-2016-plasma-gun-d9777005def242cd958cf822f3902a1e",
      "title": "Doom 2016 - Plasma Gun"
    },
    "generator": "Sketchfab-4.45.0",
    "version": "2.0"
  },
  "bufferViews": [
    {
      "buffer": 0,
      "byteLength": 60360,
      "byteOffset": 0,
      "name": "floatBufferViews",
      "target": 34963
    },
    {
      "buffer": 0,
      "byteLength": 116208,
      "byteOffset": 60360,
      "byteStride": 8,
      "name": "floatBufferViews",
      "target": 34962
    },
    {
      "buffer": 0,
      "byteLength": 116208,
      "byteOffset": 176568,
      "byteStride": 12,
      "name": "floatBufferViews",
      "target": 34962
    },
    {
      "buffer": 0,
      "byteLength": 77472,
      "byteOffset": 292776,
      "byteStride": 16,
      "name": "floatBufferViews",
      "target": 34962
    }
  ],
  "buffers": [
    {
      "byteLength": 370248,
      "uri": "scene.bin"
    }
  ],
  "images": [
    {
      "uri": "textures/blinn1_normal.png"
    },
    {
      "uri": "textures/blinn1_metallicRoughness.png"
    },
    {
      "uri": "textures/blinn1_baseColor.png"
    }
  ],
  "materials": [
    {
      "doubleSided": true,
      "name": "blinn1",
      "normalTexture": {
        "index": 0,
        "scale": 1,
        "texCoord": 0
      },
      "pbrMetallicRoughness": {
        "baseColorFactor": [
          1,
          1,
          1,
          1
        ],
        "baseColorTexture": {
          "index": 2,
          "texCoord": 0
        },
        "metallicFactor": 1,
        "metallicRoughnessTexture": {
          "index": 1,
          "texCoord": 0
        },
        "roughnessFactor": 1
      }
    }
  ],
  "meshes": [
    {
      "name": "LOD_0_blinn1_0",
      "primitives": [
        {
          "attributes": {
            "NORMAL": 1,
            "POSITION": 0,
            "TANGENT": 2,
            "TEXCOORD_0": 3,
            "TEXCOORD_1": 4,
            "TEXCOORD_2": 5
          },
          "indices": 6,
          "material": 0,
          "mode": 4
        }
      ]
    }
  ],
  "nodes": [
    {
      "children": [
        1
      ],
      "name": "RootNode (gltf orientation matrix)",
      "rotation": [
        -0.70710678118654746,
        -0,
        -0,
        0.70710678118654757
      ]
    },
    {
      "children": [
        2
      ],
      "name": "RootNode (model correction matrix)"
    },
    {
      "children": [
        3
      ],
      "matrix": [
        1,
        0,
        0,
        0,
        0,
        0,
        1,
        0,
        0,
        -1,
        0,
        0,
        0,
        0,
        0,
        1
      ],
      "name": "7829364fca804ea5b9b92d01c9a0d22f.fbx"
    },
    {
      "children": [
        4
      ],
      "name": "RootNode"
    },
    {
      "children": [
        5
      ],
      "name": "LOD_0"
    },
    {
      "mesh": 0,
      "name": "LOD_0_blinn1_0"
    }
  ],
  "samplers": [
    {
      "magFilter": 9729,
      "minFilter": 9987,
      "wrapS": 10497,
      "wrapT": 10497
    }
  ],
  "scene": 0,
  "scenes": [
    {
      "name": "OSG_Scene",
      "nodes": [
        0
      ]
    }
  ],
  "textures": [
    {
      "sampler": 0,
      "source": 0
    },
    {
      "sampler": 0,
      "source": 1
    },
    {
      "sampler": 0,
      "source": 2
    }
  ]
}

