# simple box crate
g crate
mtllib crate.mtl
usemtl main

# vertex data
v 0 0 0
v 0 0 1
v 0 1 0
v 0 1 1
v 1 0 0
v 1 0 1
v 1 1 0
v 1 1 1

# texture data
vt 0 0
vt 0 1
vt 1 0
vt 1 1

# normal data
vn  0  0  1
vn  0  0 -1
vn  1  0  0
vn -1  0  0
vn  0 -1  0
vn  0  1  0

# face data
f 2/1/1 6/3/1 8/4/1
f 8/4/1 4/2/1 2/1/1
f 5/3/2 1/1/2 3/2/2
f 3/2/2 7/4/2 5/3/2
f 5/1/3 7/2/3 8/4/3
f 8/4/3 6/3/3 5/1/3
f 3/1/4 1/2/4 2/4/4
f 2/4/4 4/3/4 3/1/4
f 1/1/5 5/3/5 6/4/5
f 6/4/5 2/2/5 1/1/5
f 7/1/6 3/3/6 4/4/6
f 4/4/6 8/2/6 7/1/6